<svg xmlns="http://www.w3.org/2000/svg" width="33.45" height="34.955" viewBox="0 0 33.45 34.955">
  <g id="person-running-on-a-treadmill-silhouette-from-side-view" transform="translate(-6.084)">
    <g id="Group_13" data-name="Group 13" transform="translate(6.084 0)">
      <path id="Path_13" data-name="Path 13" d="M8.657,79.525A2.573,2.573,0,0,0,6.084,82.1v.1a2.573,2.573,0,0,0,2.573,2.573h.965v.539a1.287,1.287,0,0,0,1.286,1.286h3.216a1.287,1.287,0,0,0,1.287-1.286v-.539h12.7v.43A1.287,1.287,0,0,0,29.4,86.486h3.216A1.287,1.287,0,0,0,33.905,85.2v-.43h.322A2.573,2.573,0,0,0,36.8,82.2v-.1a2.573,2.573,0,0,0-2.573-2.573H32.809l2.6-14.055h2.2a1.93,1.93,0,1,0,0-3.86H30.688a1.93,1.93,0,1,0,0,3.86h1.444l-2.6,14.055H23.274l.8-4.726a1.284,1.284,0,0,0-.158-.866L21.511,69.82a3.411,3.411,0,0,0,.333-1.455v-3.2L24,66.378a1.288,1.288,0,0,0,1.307-.028l2.252-1.394a1.286,1.286,0,0,0-1.354-2.188l-1.607.995-2.755-1.545v-.071A3.091,3.091,0,0,0,18.9,58.93a3.039,3.039,0,0,0-2.908,2.78l-3.451,1.909a1.285,1.285,0,0,0-.624,1.44l.885,3.513a1.286,1.286,0,0,0,1.247.973,1.269,1.269,0,0,0,.315-.039,1.287,1.287,0,0,0,.934-1.562l-.643-2.552,1.3-.718v3.692a3.406,3.406,0,0,0,.356,1.5l-2.571,3.629-4.466-2.4a1.286,1.286,0,1,0-1.219,2.266L13.516,76.3a1.287,1.287,0,0,0,1.659-.39l3.115-4.4a2.646,2.646,0,0,0,1.227-.005l1.944,3.322-.8,4.7H8.657Z" transform="translate(-6.084 -51.64)" fill="#ef8830"/>
      <circle id="Ellipse_10" data-name="Ellipse 10" cx="3.431" cy="3.431" r="3.431" transform="translate(9.381 0)" fill="#ef8830"/>
    </g>
  </g>
</svg>
