<svg xmlns="http://www.w3.org/2000/svg" width="34.144" height="26.174" viewBox="0 0 34.144 26.174">
  <g id="swimmer" transform="translate(0 -59.757)">
    <path id="Path_2" data-name="Path 2" d="M152.528,77.226l-1.64-2.644a4.477,4.477,0,1,0-.574-.925l-3.968-6.4,5.889-1.7a2.96,2.96,0,0,0-1.641-5.687l-8.915,2.573a3.627,3.627,0,0,0-2.077,5.4l2.695,4.343-4.726,2.932C143.254,75.253,147.362,76.984,152.528,77.226Z" transform="translate(-128.395 0)" fill="#ef8830"/>
    <path id="Path_3" data-name="Path 3" d="M1.274,323.037c12.924-3.674,17.8,3.743,32.122.006a1,1,0,0,0-.505-1.936c-13.755,3.591-18.643-3.838-32.164.006a1,1,0,1,0,.547,1.924Z" transform="translate(0 -242.865)" fill="#ef8830"/>
    <path id="Path_4" data-name="Path 4" d="M32.891,391.074c-13.781,3.6-18.616-3.846-32.164.006A1,1,0,1,0,1.274,393c12.924-3.674,17.8,3.743,32.122.006a1,1,0,0,0-.505-1.936Z" transform="translate(0 -308.164)" fill="#ef8830"/>
  </g>
</svg>
