<svg id="man-lifting-weight" xmlns="http://www.w3.org/2000/svg" width="27.474" height="34.955" viewBox="0 0 27.474 34.955">
  <path id="Path_5" data-name="Path 5" d="M206.9,80.114a3.494,3.494,0,1,0-3.493-3.494A3.5,3.5,0,0,0,206.9,80.114Z" transform="translate(-193.163 -68.098)" fill="#ef8830"/>
  <path id="Path_6" data-name="Path 6" d="M81.884,3.341a.785.785,0,0,0-.773-.784V1.668A1.072,1.072,0,0,0,79.571.7a1.347,1.347,0,0,0-2.529.646V2.556h-.726a1.454,1.454,0,0,0-2.775,0H62.752a1.454,1.454,0,0,0-2.775,0h-.726V1.347A1.347,1.347,0,0,0,56.723.7a1.072,1.072,0,0,0-1.54.966v.888a.784.784,0,0,0,0,1.569v.888a1.072,1.072,0,0,0,1.54.966,1.347,1.347,0,0,0,2.529-.646V4.126h.659V9.881a3.285,3.285,0,0,0,.838,2.092l3.171,3.32v17.9a1.764,1.764,0,1,0,3.529,0V24.372h1.392v8.807a1.764,1.764,0,1,0,3.529,0l0-17.885,3.171-3.32a3.285,3.285,0,0,0,.838-2.092V4.126h.659V5.334a1.347,1.347,0,0,0,2.529.646,1.072,1.072,0,0,0,1.54-.966V4.125A.785.785,0,0,0,81.884,3.341ZM73.476,9.85a.67.67,0,0,1-.055.138l-2.747,2.877H65.621L62.873,9.988a.665.665,0,0,1-.055-.138V4.126H73.476V9.85Z" transform="translate(-54.41 0)" fill="#ef8830"/>
</svg>
