<svg xmlns="http://www.w3.org/2000/svg" width="35.07" height="34.955" viewBox="0 0 35.07 34.955">
  <g id="meditation" transform="translate(-0.006 -0.24)">
    <g id="Group_4" data-name="Group 4" transform="translate(13.469 0.239)">
      <g id="Group_3" data-name="Group 3" transform="translate(0 0)">
        <ellipse id="Ellipse_9" data-name="Ellipse 9" cx="4.203" cy="4.503" rx="4.203" ry="4.503" fill="#ef8830"/>
      </g>
    </g>
    <g id="Group_6" data-name="Group 6" transform="translate(20.662 32.023)">
      <g id="Group_5" data-name="Group 5">
        <path id="Path_9" data-name="Path 9" d="M306.969,465.7l-5.4,2.025,2.685,1.007a2.192,2.192,0,0,0,2.822-1.283A2.168,2.168,0,0,0,306.969,465.7Z" transform="translate(-301.57 -465.702)" fill="#ef8830"/>
      </g>
    </g>
    <g id="Group_8" data-name="Group 8" transform="translate(4.389 24.235)">
      <g id="Group_7" data-name="Group 7">
        <path id="Path_10" data-name="Path 10" d="M66.954,352.149a2.192,2.192,0,1,0-1.539,4.105l2.365.887,6.243-2.341Z" transform="translate(-63.992 -352.012)" fill="#ef8830"/>
      </g>
    </g>
    <g id="Group_10" data-name="Group 10" transform="translate(8.773 24.235)">
      <g id="Group_9" data-name="Group 9">
        <path id="Path_11" data-name="Path 11" d="M149.77,353.433a2.2,2.2,0,0,0-2.822-1.283l-17.535,6.576a2.192,2.192,0,1,0,1.539,4.105l17.535-6.576A2.193,2.193,0,0,0,149.77,353.433Z" transform="translate(-127.989 -352.012)" fill="#ef8830"/>
      </g>
    </g>
    <g id="Group_12" data-name="Group 12" transform="translate(0.006 8.89)">
      <g id="Group_11" data-name="Group 11" transform="translate(0)">
        <path id="Path_12" data-name="Path 12" d="M32.884,136.757H27.664L23.886,129.2a2.192,2.192,0,0,0-2.014-1.212h-8.66A2.193,2.193,0,0,0,11.2,129.2l-3.778,7.556H2.2a2.192,2.192,0,0,0,0,4.384H8.774a2.191,2.191,0,0,0,1.961-1.212l2.423-4.846v8.225l4.384,1.644,4.384-1.644v-8.225l2.423,4.846a2.192,2.192,0,0,0,1.961,1.212h6.576a2.192,2.192,0,0,0,0-4.384Z" transform="translate(-0.006 -127.989)" fill="#ef8830"/>
      </g>
    </g>
  </g>
</svg>
