<svg id="XMLID_511_" xmlns="http://www.w3.org/2000/svg" width="36.518" height="31.39" viewBox="0 0 36.518 31.39">
  <path id="XMLID_512_" d="M10.432,273.818a5.072,5.072,0,0,1-3.1,1.076,5.123,5.123,0,1,1,4.731-7.079l1.6-1.664a7.328,7.328,0,1,0-1.409,9.012,3.639,3.639,0,0,1-1.38-.825A3.714,3.714,0,0,1,10.432,273.818Z" transform="translate(0 -245.709)" fill="#ef8830"/>
  <path id="XMLID_513_" d="M138.7,102.671l-3.88-2.254,2.819-1.765-.054.551a1.872,1.872,0,0,0,1.468,1.973c.021,0,6.812,1.158,7.059,1.158a1.837,1.837,0,0,0,.3-3.65l-5-.831.238-2.386c.24-1.525.344-2-.226-2.912l-.716-1.144a3.16,3.16,0,0,0-4.354-1l-7.832,4.9c-1.924,1.2-2.862,3.744-1.291,5.612.614.73,6.579,4.4,6.579,4.4l-4.831,5.011a2.2,2.2,0,1,0,3.174,3.06l7.027-7.287A2.205,2.205,0,0,0,138.7,102.671Z" transform="translate(-117.141 -85.881)" fill="#ef8830"/>
  <path id="XMLID_514_" d="M334.377,41.648a3.669,3.669,0,1,0-5.057-1.165A3.669,3.669,0,0,0,334.377,41.648Z" transform="translate(-304.587 -34.868)" fill="#ef8830"/>
  <path id="XMLID_515_" d="M304.647,262.443a7.328,7.328,0,1,0,7.328,7.328A7.36,7.36,0,0,0,304.647,262.443Zm0,12.451a5.123,5.123,0,1,1,5.123-5.123A5.129,5.129,0,0,1,304.647,274.894Z" transform="translate(-275.457 -245.709)" fill="#ef8830"/>
</svg>
