<svg xmlns="http://www.w3.org/2000/svg" width="37.062" height="34.955" viewBox="0 0 37.062 34.955">
  <g id="martial-arts-couple-fight" transform="translate(-82.267 59.74)">
    <g id="Group_2" data-name="Group 2" transform="translate(82.267 -59.74)">
      <circle id="Ellipse_4" data-name="Ellipse 4" cx="3.167" cy="3.167" r="3.167" transform="translate(0 0)" fill="#ef8830"/>
      <circle id="Ellipse_5" data-name="Ellipse 5" cx="3.167" cy="3.167" r="3.167" transform="translate(28.554 3.168)" fill="#ef8830"/>
      <path id="Path_7" data-name="Path 7" d="M67.751,40.39A1.751,1.751,0,0,0,66.734,39l-4.026-1.828-3.43-1.737a1.764,1.764,0,0,0-.4-.252l-2.8-1.2a1.778,1.778,0,0,0-.333-.106l-5.181-1.082a1.753,1.753,0,0,0-.717,3.433l5.01,1.047,1.377.591L54.389,40.3l-9.807-3.591a2,2,0,0,0-1.894,3.472l-1.715.629L39.8,36.434l.645-.139a1.754,1.754,0,0,0,1.282-1.121l1.936-5.391a1.753,1.753,0,0,0-3.3-1.185L38.8,32.957l-.717.261-.26.056a1.743,1.743,0,0,0-.606.26l-2.575.94a1.586,1.586,0,0,0-.961,1.948l3.512,11.183.043-.026.367,3.884-3.528,7.2a2,2,0,0,0,3.6,1.764l3.777-7.712a1.993,1.993,0,0,0,.2-1.069l-.6-6.328c0-.01,0-.018-.006-.028l.976-.586,0-.009,3-1.1L48,46.214a2,2,0,0,0,2.64-3.015l0,0,3.055,1.119a1.968,1.968,0,0,0,.381.094l.023.032a1.989,1.989,0,0,0-.007.536l.928,6.782L54.554,58.6a2,2,0,0,0,1.863,2.134c.046,0,.092,0,.138,0a2,2,0,0,0,2-1.868l.479-7.044a2.055,2.055,0,0,0-.014-.408l-.755-5.51,1.813-2.362,2.073-2.779,2.238,1.016.47,3.953a1.753,1.753,0,0,0,1.74,1.546,1.689,1.689,0,0,0,.208-.012,1.753,1.753,0,0,0,1.534-1.948Z" transform="translate(-31.289 -26.597)" fill="#ef8830"/>
    </g>
  </g>
</svg>
