<svg xmlns="http://www.w3.org/2000/svg" width="21.899" height="25.005" viewBox="0 0 21.899 25.005">
  <g id="ticket_1_" data-name="ticket (1)" transform="matrix(0.105, -0.995, 0.995, 0.105, -0.206, 22.942)">
    <path id="Path_63" data-name="Path 63" d="M21.222,13.819H2.468A2.471,2.471,0,0,1,0,11.351V9.377a.494.494,0,0,1,.494-.494H.987a1.974,1.974,0,1,0,0-3.948H.494A.494.494,0,0,1,0,4.442V2.468A2.471,2.471,0,0,1,2.468,0H21.222A2.471,2.471,0,0,1,23.69,2.468V4.442a.494.494,0,0,1-.494.494H22.7a1.974,1.974,0,0,0,0,3.948H23.2a.494.494,0,0,1,.494.494v1.974A2.47,2.47,0,0,1,21.222,13.819ZM.987,9.871v1.481a1.482,1.482,0,0,0,1.481,1.481H21.222A1.482,1.482,0,0,0,22.7,11.351V9.871h0a2.961,2.961,0,0,1,0-5.923V2.468A1.482,1.482,0,0,0,21.222.987H2.468A1.482,1.482,0,0,0,.987,2.468V3.948a2.961,2.961,0,0,1,0,5.923Z" transform="translate(0 5.918)"/>
    <path id="Path_64" data-name="Path 64" d="M.494,1.974A.494.494,0,0,1,0,1.481V.494a.494.494,0,1,1,.987,0v.987A.494.494,0,0,1,.494,1.974Z" transform="translate(7.897 5.918)"/>
    <path id="Path_65" data-name="Path 65" d="M.494,6.833A.494.494,0,0,1,0,6.339V4.67a.494.494,0,1,1,.987,0V6.34A.493.493,0,0,1,.494,6.833Zm0-4.175A.494.494,0,0,1,0,2.164V.494a.494.494,0,0,1,.987,0v1.67A.494.494,0,0,1,.494,2.657Z" transform="translate(7.897 9.411)"/>
    <path id="Path_66" data-name="Path 66" d="M.494,1.974A.494.494,0,0,1,0,1.481V.494a.494.494,0,1,1,.987,0v.987A.494.494,0,0,1,.494,1.974Z" transform="translate(7.897 17.763)"/>
    <path id="Path_67" data-name="Path 67" d="M.494,6.905A.493.493,0,0,1,.321,5.95L16.015.089A1.507,1.507,0,0,1,17.935,1l1.78,5.252a.494.494,0,0,1-.935.317L17,1.317a.5.5,0,0,0-.641-.3L.665,6.874a.476.476,0,0,1-.172.032Z" transform="translate(1.974 0)"/>
  </g>
</svg>
