<svg xmlns="http://www.w3.org/2000/svg" width="72" height="72" viewBox="0 0 72 72">
  <g id="Group_19" data-name="Group 19" transform="translate(-43 -511)">
    <g id="Ellipse_1" data-name="Ellipse 1" transform="translate(43 511)" fill="#ef8830" stroke="#3f3f3f" stroke-width="2">
      <circle cx="36" cy="36" r="36" stroke="none"/>
      <circle cx="36" cy="36" r="35" fill="none"/>
    </g>
    <g id="XMLID_511_" transform="translate(54.064 522.901)">
      <path id="XMLID_512_" d="M14.265,278a6.936,6.936,0,0,1-4.245,1.471,7.005,7.005,0,1,1,6.469-9.681l2.194-2.275a10.02,10.02,0,1,0-1.927,12.324,4.976,4.976,0,0,1-1.887-1.128A5.081,5.081,0,0,1,14.265,278Z" transform="translate(0 -239.56)"/>
      <path id="XMLID_513_" d="M143.2,107.352,137.9,104.27l3.855-2.414-.074.754a2.56,2.56,0,0,0,2.008,2.7c.028.006,9.314,1.584,9.653,1.584a2.512,2.512,0,0,0,.408-4.991l-6.836-1.136.325-3.262c.328-2.085.47-2.738-.308-3.982l-.979-1.564A4.321,4.321,0,0,0,140,90.588l-10.71,6.706c-2.63,1.647-3.913,5.12-1.766,7.674.839,1,9,6.011,9,6.011l-6.606,6.853a3.015,3.015,0,1,0,4.34,4.185l9.609-9.965A3.016,3.016,0,0,0,143.2,107.352Z" transform="translate(-113.724 -84.393)"/>
      <path id="XMLID_514_" d="M336.44,44.139a5.017,5.017,0,1,0-6.915-1.593A5.017,5.017,0,0,0,336.44,44.139Z" transform="translate(-295.704 -34.868)"/>
      <path id="XMLID_515_" d="M307.339,262.443a10.021,10.021,0,1,0,10.02,10.021A10.065,10.065,0,0,0,307.339,262.443Zm0,17.026a7.005,7.005,0,1,1,7.005-7.005A7.013,7.013,0,0,1,307.339,279.469Z" transform="translate(-267.424 -239.56)"/>
    </g>
  </g>
</svg>
