<svg xmlns="http://www.w3.org/2000/svg" width="72" height="72" viewBox="0 0 72 72">
  <g id="Group_17" data-name="Group 17" transform="translate(-159 -688)">
    <g id="Ellipse_6" data-name="Ellipse 6" transform="translate(159 688)" fill="#ef8830" stroke="#3f3f3f" stroke-width="2">
      <circle cx="36" cy="36" r="36" stroke="none"/>
      <circle cx="36" cy="36" r="35" fill="none"/>
    </g>
    <g id="martial-arts-couple-fight" transform="translate(91.676 762.994)">
      <g id="Group_2" data-name="Group 2" transform="translate(82.267 -59.74)">
        <circle id="Ellipse_4" data-name="Ellipse 4" cx="3.941" cy="3.941" r="3.941" transform="translate(0 0)"/>
        <circle id="Ellipse_5" data-name="Ellipse 5" cx="3.941" cy="3.941" r="3.941" transform="translate(35.528 3.942)"/>
        <path id="Path_7" data-name="Path 7" d="M76.09,43.553a2.178,2.178,0,0,0-1.265-1.728l-5.009-2.274L65.548,37.39a2.195,2.195,0,0,0-.5-.314l-3.488-1.5a2.212,2.212,0,0,0-.415-.131L54.7,34.1a2.182,2.182,0,0,0-.893,4.271l6.233,1.3,1.713.735-2.286,3.034-12.2-4.468a2.487,2.487,0,0,0-2.356,4.32l-2.134.783-1.458-5.447.8-.172a2.183,2.183,0,0,0,1.595-1.4l2.409-6.708a2.182,2.182,0,0,0-4.106-1.475L40.067,34.3l-.893.325-.324.07a2.169,2.169,0,0,0-.754.324l-3.2,1.169a1.973,1.973,0,0,0-1.2,2.424l4.37,13.915.053-.032.457,4.832-4.389,8.961a2.493,2.493,0,0,0,4.478,2.194l4.7-9.6a2.48,2.48,0,0,0,.244-1.33l-.744-7.873c0-.012-.006-.022-.007-.034l1.214-.729,0-.011L47.8,47.546,51.516,50.8A2.493,2.493,0,1,0,54.8,47.049l0,0,3.8,1.392a2.449,2.449,0,0,0,.474.117l.029.04a2.475,2.475,0,0,0-.009.667L60.247,57.7l-.577,8.512a2.493,2.493,0,0,0,2.318,2.655c.057,0,.115.006.172.006a2.494,2.494,0,0,0,2.485-2.324l.6-8.764a2.557,2.557,0,0,0-.018-.507l-.94-6.856,2.256-2.938,2.579-3.457L71.9,45.289l.585,4.918a2.182,2.182,0,0,0,2.165,1.923,2.1,2.1,0,0,0,.259-.015,2.181,2.181,0,0,0,1.908-2.423Z" transform="translate(-30.722 -26.391)"/>
      </g>
    </g>
  </g>
</svg>
