<svg xmlns="http://www.w3.org/2000/svg" width="18" height="18" viewBox="0 0 18 18">
  <g id="Group_146" data-name="Group 146" transform="translate(-218 -376)">
    <g id="Group_122" data-name="Group 122" transform="translate(175 -312)">
      <g id="Ellipse_3" data-name="Ellipse 3" transform="translate(43 688)" fill="#ef8830" stroke="#000" stroke-width="0.5">
        <circle cx="9" cy="9" r="9" stroke="none"/>
        <circle cx="9" cy="9" r="8.75" fill="none"/>
      </g>
    </g>
    <g id="_4631994201535698997" data-name="4631994201535698997" transform="translate(217.585 358.373)">
      <path id="Path_118" data-name="Path 118" d="M30.11,50.437a3.073,3.073,0,0,0-3.07,3.069.209.209,0,0,0,.209.209H32.97a.209.209,0,0,0,.209-.209A3.073,3.073,0,0,0,30.11,50.437ZM27.466,53.3a2.652,2.652,0,0,1,5.288,0Z" transform="translate(-20.703 -24.009)"/>
      <path id="Path_119" data-name="Path 119" d="M37.594,26.152a1.8,1.8,0,1,0-1.8-1.8A1.8,1.8,0,0,0,37.594,26.152Zm0-3.187a1.385,1.385,0,1,1-1.385,1.385A1.386,1.386,0,0,1,37.594,22.965Z" transform="translate(-28.237 0)"/>
      <path id="Path_120" data-name="Path 120" d="M5.327,56.131A1.919,1.919,0,0,1,6.3,56.4a.209.209,0,1,0,.211-.36,2.336,2.336,0,0,0-3.519,2.014.209.209,0,0,0,.209.209H5.845a.209.209,0,1,0,0-.417H3.421A1.921,1.921,0,0,1,5.327,56.131Z" transform="translate(0 -28.552)"/>
      <path id="Path_121" data-name="Path 121" d="M10.893,36.077A1.393,1.393,0,1,0,9.5,34.684,1.395,1.395,0,0,0,10.893,36.077Zm0-2.369a.976.976,0,1,1-.976.976A.977.977,0,0,1,10.893,33.708Z" transform="translate(-5.603 -9.249)"/>
      <path id="Path_122" data-name="Path 122" d="M70.589,55.714a2.338,2.338,0,0,0-1.184.322.209.209,0,0,0,.211.36A1.919,1.919,0,0,1,72.5,57.841H70.072a.209.209,0,1,0,0,.417h2.644a.209.209,0,0,0,.209-.209A2.338,2.338,0,0,0,70.589,55.714Z" transform="translate(-57.086 -28.552)"/>
      <path id="Path_123" data-name="Path 123" d="M70.2,36.077A1.393,1.393,0,1,0,68.8,34.684,1.395,1.395,0,0,0,70.2,36.077Zm0-2.369a.976.976,0,1,1-.976.976A.977.977,0,0,1,70.2,33.708Z" transform="translate(-56.658 -9.249)"/>
    </g>
  </g>
</svg>
