<svg xmlns="http://www.w3.org/2000/svg" width="138" height="144" viewBox="0 0 138 144">
  <g id="Group_259" data-name="Group 259" transform="translate(-1274 -1046)">
    <rect id="Rectangle_137" data-name="Rectangle 137" width="138" height="144" rx="18" transform="translate(1274 1046)" fill="#ef8830"/>
    <path id="Path_137" data-name="Path 137" d="M3.7,0H27.1V-4.045L16-20.646H72L60.317-4.045V0H85.356a16,16,0,0,1,0,32H3.961A16.226,16.226,0,0,1-12.3,16,16,16,0,0,1,3.7,0Z" transform="translate(1299 1145)" fill="#f2f2f2"/>
    <text id="Cardio" transform="translate(1343 1166)" stroke="#000" stroke-width="0.5" font-size="15" font-family="Poppins-Regular, Poppins" letter-spacing="0.008em"><tspan x="-25.654" y="0">Cardio</tspan></text>
  </g>
  <g id="Group_272" data-name="Group 272" transform="translate(-242 -668)">
    <path id="Path_111" data-name="Path 111" d="M36,0A36,36,0,1,1,0,36,36,36,0,0,1,36,0Z" transform="translate(275 688)" fill="#f2f2f2"/>
    <g id="person-running-on-a-treadmill-silhouette-from-side-view" transform="translate(280.316 698.293)">
      <g id="Group_13" data-name="Group 13" transform="translate(6.084 0)">
        <path id="Path_13" data-name="Path 13" d="M9.869,89.223a3.785,3.785,0,0,0-3.785,3.785v.143a3.785,3.785,0,0,0,3.785,3.785h1.419v.793A1.893,1.893,0,0,0,13.18,99.62h4.731A1.893,1.893,0,0,0,19.8,97.728v-.793H38.49v.633a1.894,1.894,0,0,0,1.892,1.892h4.731a1.894,1.894,0,0,0,1.892-1.892v-.633h.473a3.785,3.785,0,0,0,3.785-3.785v-.143a3.785,3.785,0,0,0-3.785-3.785H45.392L49.21,68.551h3.235a2.838,2.838,0,1,0,0-5.677H42.274a2.838,2.838,0,1,0,0,5.677H44.4L40.58,89.223H31.368l1.181-6.952A1.888,1.888,0,0,0,32.316,81l-3.541-6.05a5.018,5.018,0,0,0,.489-2.14V68.1l3.174,1.78a1.9,1.9,0,0,0,1.923-.042l3.312-2.05a1.892,1.892,0,0,0-1.991-3.218l-2.363,1.463-4.053-2.272v-.1a4.547,4.547,0,0,0-4.336-4.731,4.47,4.47,0,0,0-4.278,4.089l-5.075,2.807a1.891,1.891,0,0,0-.919,2.117l1.3,5.167a1.892,1.892,0,0,0,1.834,1.431,1.866,1.866,0,0,0,.463-.058,1.892,1.892,0,0,0,1.373-2.3l-.945-3.754,1.909-1.056v5.43a5.01,5.01,0,0,0,.523,2.207l-3.781,5.337-6.568-3.533A1.892,1.892,0,1,0,8.973,80.15l8.042,4.327a1.893,1.893,0,0,0,2.44-.573l4.582-6.469a3.892,3.892,0,0,0,1.805-.007L28.7,82.315l-1.172,6.907H9.869Z" transform="translate(-6.084 -48.207)"/>
        <circle id="Ellipse_10" data-name="Ellipse 10" cx="5.047" cy="5.047" r="5.047" transform="translate(13.798 0)"/>
      </g>
    </g>
  </g>
</svg>
