<svg xmlns="http://www.w3.org/2000/svg" width="138" height="144" viewBox="0 0 138 144">
  <g id="Group_259" data-name="Group 259" transform="translate(-1274 -1046)">
    <rect id="Rectangle_137" data-name="Rectangle 137" width="138" height="144" rx="18" transform="translate(1274 1046)" fill="#ef8830"/>
    <g id="Group_254" data-name="Group 254" transform="translate(1307 1066)">
      <g id="Group_113" data-name="Group 113">
        <circle id="Ellipse_3" data-name="Ellipse 3" cx="36" cy="36" r="36" fill="#f2f2f2"/>
        <g id="man-lifting-weight" transform="translate(14.993 9.273)">
          <path id="Path_5" data-name="Path 5" d="M208.748,83.813a5.344,5.344,0,1,0-5.342-5.344A5.35,5.35,0,0,0,208.748,83.813Z" transform="translate(-187.742 -65.437)"/>
          <path id="Path_6" data-name="Path 6" d="M96.424,5.109a1.2,1.2,0,0,0-1.182-1.2V2.551a1.639,1.639,0,0,0-2.354-1.478,2.059,2.059,0,0,0-3.867.987V3.908h-1.11a2.223,2.223,0,0,0-4.244,0h-16.5a2.223,2.223,0,0,0-4.244,0h-1.11V2.06a2.059,2.059,0,0,0-3.867-.987,1.639,1.639,0,0,0-2.355,1.478V3.909a1.2,1.2,0,0,0,0,2.4V7.667a1.639,1.639,0,0,0,2.354,1.478,2.059,2.059,0,0,0,3.867-.987V6.309h1.009v8.8a5.023,5.023,0,0,0,1.282,3.2l4.849,5.078V50.756a2.7,2.7,0,1,0,5.4,0V37.271h2.129V50.738a2.7,2.7,0,1,0,5.4,0l.006-27.351L86.73,18.31a5.023,5.023,0,0,0,1.282-3.2v-8.8h1.008V8.157a2.059,2.059,0,0,0,3.867.987,1.639,1.639,0,0,0,2.355-1.478V6.308A1.2,1.2,0,0,0,96.424,5.109ZM83.566,15.063a1.025,1.025,0,0,1-.085.211l-4.2,4.4H71.554l-4.2-4.4a1.017,1.017,0,0,1-.085-.21V6.309h16.3v8.754Z" transform="translate(-54.41)"/>
        </g>
      </g>
    </g>
    <path id="Path_137" data-name="Path 137" d="M3.7,0H27.1V-4.045L16-20.646H72L60.317-4.045V0H85.356a16,16,0,0,1,0,32H3.961A16.226,16.226,0,0,1-12.3,16,16,16,0,0,1,3.7,0Z" transform="translate(1299 1145)" fill="#f2f2f2"/>
    <text id="Weightlifting" transform="translate(1296 1166)" stroke="#000" stroke-width="0.5" font-size="15" font-family="Poppins-Regular, Poppins" letter-spacing="0.008em"><tspan x="0" y="0">Weightlifting</tspan></text>
  </g>
</svg>
