<svg xmlns="http://www.w3.org/2000/svg" width="138" height="144" viewBox="0 0 138 144">
  <g id="Group_274" data-name="Group 274" transform="translate(-1679 -1090)">
    <g id="Group_259" data-name="Group 259" transform="translate(405 44)">
      <rect id="Rectangle_137" data-name="Rectangle 137" width="138" height="144" rx="18" transform="translate(1274 1046)" fill="#ef8830"/>
      <path id="Path_137" data-name="Path 137" d="M3.7,0H27.1V-4.045L16-20.646H72L60.317-4.045V0H85.356a16,16,0,0,1,0,32H3.961A16.226,16.226,0,0,1-12.3,16,16,16,0,0,1,3.7,0Z" transform="translate(1299 1145)" fill="#f2f2f2"/>
      <text id="Swimming" transform="translate(1343 1166)" stroke="#000" stroke-width="0.5" font-size="15" font-family="Poppins-Regular, Poppins" letter-spacing="0.008em"><tspan x="-39.956" y="0">Swimming</tspan></text>
    </g>
    <g id="Group_273" data-name="Group 273" transform="translate(1553 599)">
      <circle id="Ellipse_2" data-name="Ellipse 2" cx="36" cy="36" r="36" transform="translate(159 511)" fill="#f2f2f2"/>
      <g id="swimmer" transform="translate(168.25 466.737)">
        <path id="Path_2" data-name="Path 2" d="M161.008,87.13l-2.57-4.143a7.014,7.014,0,1,0-.9-1.45L151.32,71.516l9.227-2.663a4.638,4.638,0,0,0-2.571-8.912l-13.969,4.031a5.684,5.684,0,0,0-3.255,8.461l4.222,6.8-7.4,4.594C146.477,84.037,152.914,86.75,161.008,87.13Z" transform="translate(-123.194)"/>
        <path id="Path_3" data-name="Path 3" d="M2,324.773c20.25-5.757,27.9,5.865,50.332.009a1.567,1.567,0,1,0-.792-3.033c-21.553,5.626-29.212-6.014-50.4.009A1.567,1.567,0,0,0,2,324.773Z" transform="translate(0 -233.028)"/>
        <path id="Path_4" data-name="Path 4" d="M51.536,391.717c-21.593,5.637-29.17-6.026-50.4.009A1.567,1.567,0,1,0,2,394.741c20.25-5.757,27.9,5.865,50.332.009a1.567,1.567,0,1,0-.792-3.033Z" transform="translate(0 -295.681)"/>
      </g>
    </g>
  </g>
</svg>
