<svg xmlns="http://www.w3.org/2000/svg" width="72" height="72" viewBox="0 0 72 72">
  <g id="Group_18" data-name="Group 18" transform="translate(-275 -688)">
    <g id="Path_111" data-name="Path 111" transform="translate(275 688)" fill="#ef8830">
      <path d="M 36 71 C 31.27458953857422 71 26.69105911254883 70.07475280761719 22.37672996520996 68.24993896484375 C 18.20907020568848 66.48716735839844 14.46592044830322 63.96340179443359 11.25125980377197 60.74874114990234 C 8.036600112915039 57.53408050537109 5.512829780578613 53.79093170166016 3.750060081481934 49.62326812744141 C 1.925250053405762 45.30894088745117 1 40.72541046142578 1 36 C 1 31.27458953857422 1.925250053405762 26.69105911254883 3.750060081481934 22.37672996520996 C 5.512829780578613 18.20907020568848 8.036600112915039 14.46592044830322 11.25125980377197 11.25125980377197 C 14.46592044830322 8.036600112915039 18.20907020568848 5.512829780578613 22.37672996520996 3.750060081481934 C 26.69105911254883 1.925250053405762 31.27458953857422 1 36 1 C 40.72541046142578 1 45.30894088745117 1.925250053405762 49.62326812744141 3.750060081481934 C 53.79093170166016 5.512829780578613 57.53408050537109 8.036600112915039 60.74874114990234 11.25125980377197 C 63.96340179443359 14.46592044830322 66.48716735839844 18.20907020568848 68.24993896484375 22.37672996520996 C 70.07475280761719 26.69105911254883 71 31.27458953857422 71 36 C 71 40.72541046142578 70.07475280761719 45.30894088745117 68.24993896484375 49.62326812744141 C 66.48716735839844 53.79093170166016 63.96340179443359 57.53408050537109 60.74874114990234 60.74874114990234 C 57.53408050537109 63.96340179443359 53.79093170166016 66.48716735839844 49.62326812744141 68.24993896484375 C 45.30894088745117 70.07475280761719 40.72541046142578 71 36 71 Z" stroke="none"/>
      <path d="M 36 2 C 31.40914535522461 2 26.95668792724609 2.898674011230469 22.76627731323242 4.671066284179688 C 18.71782302856445 6.3834228515625 15.08152389526367 8.835220336914063 11.95836639404297 11.95836639404297 C 8.835220336914063 15.08152389526367 6.3834228515625 18.71782302856445 4.671066284179688 22.76627731323242 C 2.898674011230469 26.95668792724609 2 31.40914535522461 2 36 C 2 40.59085464477539 2.898674011230469 45.04331207275391 4.671066284179688 49.23372268676758 C 6.3834228515625 53.28217697143555 8.835220336914063 56.91847991943359 11.95836639404297 60.04163360595703 C 15.08152389526367 63.16477966308594 18.71782302856445 65.6165771484375 22.76627731323242 67.32893371582031 C 26.95668792724609 69.101318359375 31.40914535522461 70 36 70 C 40.59085464477539 70 45.04331207275391 69.101318359375 49.23372268676758 67.32893371582031 C 53.28217697143555 65.6165771484375 56.91847991943359 63.16477966308594 60.04163360595703 60.04163360595703 C 63.16477966308594 56.91847991943359 65.6165771484375 53.28217697143555 67.32893371582031 49.23372268676758 C 69.101318359375 45.04331207275391 70 40.59085464477539 70 36 C 70 31.40914535522461 69.101318359375 26.95668792724609 67.32893371582031 22.76627731323242 C 65.6165771484375 18.71782302856445 63.16477966308594 15.08152389526367 60.04163360595703 11.95836639404297 C 56.91847991943359 8.835220336914063 53.28217697143555 6.3834228515625 49.23372268676758 4.671066284179688 C 45.04331207275391 2.898674011230469 40.59085464477539 2 36 2 M 36 0 C 55.88224411010742 0 72 16.11775588989258 72 36 C 72 55.88224411010742 55.88224411010742 72 36 72 C 16.11775588989258 72 0 55.88224411010742 0 36 C 0 16.11775588989258 16.11775588989258 0 36 0 Z" stroke="none" fill="#3f3f3f"/>
    </g>
    <g id="person-running-on-a-treadmill-silhouette-from-side-view" transform="translate(280.316 698.293)">
      <g id="Group_13" data-name="Group 13" transform="translate(6.084 0)">
        <path id="Path_13" data-name="Path 13" d="M9.869,89.223a3.785,3.785,0,0,0-3.785,3.785v.143a3.785,3.785,0,0,0,3.785,3.785h1.419v.793A1.893,1.893,0,0,0,13.18,99.62h4.731A1.893,1.893,0,0,0,19.8,97.728v-.793H38.49v.633a1.894,1.894,0,0,0,1.892,1.892h4.731a1.894,1.894,0,0,0,1.892-1.892v-.633h.473a3.785,3.785,0,0,0,3.785-3.785v-.143a3.785,3.785,0,0,0-3.785-3.785H45.392L49.21,68.551h3.235a2.838,2.838,0,1,0,0-5.677H42.274a2.838,2.838,0,1,0,0,5.677H44.4L40.58,89.223H31.368l1.181-6.952A1.888,1.888,0,0,0,32.316,81l-3.541-6.05a5.018,5.018,0,0,0,.489-2.14V68.1l3.174,1.78a1.9,1.9,0,0,0,1.923-.042l3.312-2.05a1.892,1.892,0,0,0-1.991-3.218l-2.363,1.463-4.053-2.272v-.1a4.547,4.547,0,0,0-4.336-4.731,4.47,4.47,0,0,0-4.278,4.089l-5.075,2.807a1.891,1.891,0,0,0-.919,2.117l1.3,5.167a1.892,1.892,0,0,0,1.834,1.431,1.866,1.866,0,0,0,.463-.058,1.892,1.892,0,0,0,1.373-2.3l-.945-3.754,1.909-1.056v5.43a5.01,5.01,0,0,0,.523,2.207l-3.781,5.337-6.568-3.533A1.892,1.892,0,1,0,8.973,80.15l8.042,4.327a1.893,1.893,0,0,0,2.44-.573l4.582-6.469a3.892,3.892,0,0,0,1.805-.007L28.7,82.315l-1.172,6.907H9.869Z" transform="translate(-6.084 -48.207)"/>
        <circle id="Ellipse_10" data-name="Ellipse 10" cx="5.047" cy="5.047" r="5.047" transform="translate(13.798 0)"/>
      </g>
    </g>
  </g>
</svg>
