<svg id="Group_16" data-name="Group 16" xmlns="http://www.w3.org/2000/svg" width="72" height="72" viewBox="0 0 72 72">
  <g id="Group_113" data-name="Group 113">
    <g id="Ellipse_3" data-name="Ellipse 3" fill="#ef8830" stroke="#3f3f3f" stroke-width="2">
      <circle cx="36" cy="36" r="36" stroke="none"/>
      <circle cx="36" cy="36" r="35" fill="none"/>
    </g>
    <g id="man-lifting-weight" transform="translate(14.993 9.273)">
      <path id="Path_5" data-name="Path 5" d="M208.748,83.813a5.344,5.344,0,1,0-5.342-5.344A5.35,5.35,0,0,0,208.748,83.813Z" transform="translate(-187.742 -65.437)"/>
      <path id="Path_6" data-name="Path 6" d="M96.424,5.109a1.2,1.2,0,0,0-1.182-1.2V2.551a1.639,1.639,0,0,0-2.354-1.478,2.059,2.059,0,0,0-3.867.987V3.908h-1.11a2.223,2.223,0,0,0-4.244,0h-16.5a2.223,2.223,0,0,0-4.244,0h-1.11V2.06a2.059,2.059,0,0,0-3.867-.987,1.639,1.639,0,0,0-2.355,1.478V3.909a1.2,1.2,0,0,0,0,2.4V7.667a1.639,1.639,0,0,0,2.354,1.478,2.059,2.059,0,0,0,3.867-.987V6.309h1.009v8.8a5.023,5.023,0,0,0,1.282,3.2l4.849,5.078V50.756a2.7,2.7,0,1,0,5.4,0V37.271h2.129V50.738a2.7,2.7,0,1,0,5.4,0l.006-27.351L86.73,18.31a5.023,5.023,0,0,0,1.282-3.2v-8.8h1.008V8.157a2.059,2.059,0,0,0,3.867.987,1.639,1.639,0,0,0,2.355-1.478V6.308A1.2,1.2,0,0,0,96.424,5.109ZM83.566,15.063a1.025,1.025,0,0,1-.085.211l-4.2,4.4H71.554l-4.2-4.4a1.017,1.017,0,0,1-.085-.21V6.309h16.3v8.754Z" transform="translate(-54.41)"/>
    </g>
  </g>
</svg>
